<svg id="Layer_1" enable-background="new 0 0 512 512" height="512" viewBox="0 0 512 512" width="512" xmlns="http://www.w3.org/2000/svg"><g><g><path d="m15 243.4h115.827l1.214-6.016c11.851-58.693 63.982-101.294 123.959-101.294 29.212 0 57.705 10.193 80.229 28.703l9.523-11.589c-25.2-20.709-57.075-32.114-89.752-32.114-65.021 0-121.802 44.771-137.31 107.31h-118.69v161.03h15z"/><path d="m393.31 228.4c-6.007-24.244-18.338-46.425-35.896-64.461l-10.748 10.463c16.984 17.447 28.497 39.227 33.292 62.982l1.214 6.016h115.828v241.28h-482v-80.25h-15v95.25h512v-271.28z"/><path d="m250.57 12.32h15v78.13h-15z"/><path d="m321.603 70.323h78.129v15.001h-78.129z" transform="matrix(.509 -.861 .861 .509 110.07 348.634)"/><path d="m397.297 135.201h78.13v15h-78.13z" transform="matrix(.827 -.562 .562 .827 -4.729 270.036)"/><path d="m145.832 38.759h15.001v78.129h-15.001z" transform="matrix(.861 -.509 .509 .861 -18.262 88.9)"/><path d="m70.139 103.636h15v78.13h-15z" transform="matrix(.562 -.827 .827 .562 -84.023 126.672)"/><path d="m78.139 469.793c13.11 0 23.775-10.666 23.775-23.775s-10.666-23.775-23.775-23.775-23.775 10.666-23.775 23.775 10.665 23.775 23.775 23.775zm0-32.55c4.839 0 8.775 3.937 8.775 8.775s-3.937 8.775-8.775 8.775-8.775-3.937-8.775-8.775 3.936-8.775 8.775-8.775z"/><path d="m168.065 469.793c13.11 0 23.775-10.666 23.775-23.775s-10.666-23.775-23.775-23.775-23.775 10.666-23.775 23.775 10.666 23.775 23.775 23.775zm0-32.55c4.839 0 8.775 3.937 8.775 8.775s-3.937 8.775-8.775 8.775-8.775-3.937-8.775-8.775 3.937-8.775 8.775-8.775z"/><path d="m234.216 446.018c0 13.109 10.666 23.775 23.775 23.775s23.775-10.666 23.775-23.775-10.666-23.775-23.775-23.775-23.775 10.666-23.775 23.775zm32.551 0c0 4.839-3.937 8.775-8.775 8.775s-8.775-3.937-8.775-8.775 3.937-8.775 8.775-8.775 8.775 3.936 8.775 8.775z"/><path d="m347.917 469.793c13.11 0 23.775-10.666 23.775-23.775s-10.666-23.775-23.775-23.775-23.775 10.666-23.775 23.775 10.666 23.775 23.775 23.775zm0-32.55c4.839 0 8.775 3.937 8.775 8.775s-3.937 8.775-8.775 8.775-8.775-3.937-8.775-8.775 3.937-8.775 8.775-8.775z"/><path d="m433.861 469.793c13.11 0 23.775-10.666 23.775-23.775s-10.666-23.775-23.775-23.775-23.775 10.666-23.775 23.775 10.665 23.775 23.775 23.775zm0-32.55c4.839 0 8.775 3.937 8.775 8.775s-3.937 8.775-8.775 8.775-8.775-3.937-8.775-8.775 3.936-8.775 8.775-8.775z"/><path d="m78.139 260.243c-13.11 0-23.775 10.666-23.775 23.775s10.666 23.775 23.775 23.775 23.775-10.666 23.775-23.775-10.665-23.775-23.775-23.775zm0 32.55c-4.839 0-8.775-3.937-8.775-8.775s3.937-8.775 8.775-8.775 8.775 3.937 8.775 8.775-3.936 8.775-8.775 8.775z"/><path d="m191.841 284.018c0-13.109-10.666-23.775-23.775-23.775s-23.775 10.666-23.775 23.775 10.666 23.775 23.775 23.775 23.775-10.666 23.775-23.775zm-32.551 0c0-4.839 3.937-8.775 8.775-8.775s8.775 3.937 8.775 8.775-3.937 8.775-8.775 8.775-8.775-3.936-8.775-8.775z"/><path d="m347.917 260.243c-13.11 0-23.775 10.666-23.775 23.775s10.666 23.775 23.775 23.775 23.775-10.666 23.775-23.775-10.665-23.775-23.775-23.775zm0 32.55c-4.839 0-8.775-3.937-8.775-8.775s3.937-8.775 8.775-8.775 8.775 3.937 8.775 8.775-3.936 8.775-8.775 8.775z"/><path d="m433.861 260.243c-13.11 0-23.775 10.666-23.775 23.775s10.666 23.775 23.775 23.775 23.775-10.666 23.775-23.775-10.665-23.775-23.775-23.775zm0 32.55c-4.839 0-8.775-3.937-8.775-8.775s3.937-8.775 8.775-8.775 8.775 3.937 8.775 8.775-3.936 8.775-8.775 8.775z"/><path d="m287.79 254.346 31.89-30.975-43.983-6.471-19.605-39.902-19.745 39.832-44.006 6.315 31.78 31.088-7.592 43.804 39.386-20.618 39.314 20.757zm-12.436 16.375-19.41-10.249-19.447 10.181 3.749-21.628-15.69-15.348 21.727-3.118 9.749-19.666 9.679 19.7 21.716 3.194-15.745 15.293z"/><g><path d="m450.136 326.206h-49.73v15h17.365v60.187h15v-60.187h17.365z"/><path d="m68.364 354.119h15v-12.913h15.405v45.627h-15.405v-15.523h-15v30.523h45.405v-75.627h-45.405z"/><path d="m125.384 401.393h15v-26.344h15.405v26.344h15v-75.188h-45.405zm30.406-60.187v18.844h-15.405v-18.844z"/><path d="m180.562 401.833h45.406v-30.523h-15v15.523h-15.406v-45.627h15.406v16.596h15v-31.596h-45.406z"/><path d="m291.84 401.317h15v-21.503l30.405.297v-53.905h-45.405zm15-60.111h15.405v23.759l-15.405-.15z"/><path d="m346.097 401.833h45.405v-75.627h-45.405zm15-60.627h15.405v45.627h-15.405z"/><path d="m267.068 343.061-8.839 13.534h-7.586v-29.797h-15v74.595h15v-29.798h7.586l8.839 13.535v16.187h15v-20.651l-10.821-16.571 10.821-16.569v-20.651h-15z"/></g></g><g><g><path d="m32.008 355.773h15v15h-15z"/></g><g><path d="m465.008 355.773h15v15h-15z"/></g></g></g></svg>