<svg xmlns="http://www.w3.org/2000/svg" viewBox="0 0 64 64" width="512" height="512"><g id="Live"><path d="M60,10H4a3,3,0,0,0-3,3V43a3,3,0,0,0,3,3H23v2H19a1,1,0,0,0-.895.553l-2,4A1,1,0,0,0,17,54H47a1,1,0,0,0,.9-1.447l-2-4A1,1,0,0,0,45,48H41V46H60a3,3,0,0,0,3-3V13A3,3,0,0,0,60,10ZM3,13a1,1,0,0,1,1-1H60a1,1,0,0,1,1,1V39H3ZM45.382,52H18.618l1-2H44.382ZM39,48H25V46H39Zm22-5a1,1,0,0,1-1,1H4a1,1,0,0,1-1-1V41H61Z"/><path d="M35,33H34a1,1,0,0,0,0,2h1a1,1,0,0,0,0-2Z"/><path d="M38,30H25.647a9.8,9.8,0,0,0,.512-1H32a1,1,0,0,0,0-2H26.8A10,10,0,1,0,17,35H31a1,1,0,0,0,0-2H22.975a10.078,10.078,0,0,0,1.154-1H38a1,1,0,0,0,0-2Zm-15.293.293-1.622-1.622.8-4,2.909-1.455a7.917,7.917,0,0,1-1.971,7.247A.949.949,0,0,0,22.707,30.293ZM14.82,28,14.1,24.412,17,22.174l2.9,2.238L19.18,28ZM24.1,21.331l-2.987,1.494L18,20.419v-3.35A8.011,8.011,0,0,1,24.1,21.331ZM16,17.069v3.35l-3.114,2.406L9.9,21.331A8.011,8.011,0,0,1,16,17.069ZM9,25a7.966,7.966,0,0,1,.206-1.779l2.909,1.455.8,4-1.622,1.622a.949.949,0,0,0-.116.175A7.961,7.961,0,0,1,9,25Zm3.682,6.724c.007-.007.018-.009.025-.017L14.414,30h5.172l1.707,1.707c.007.008.018.01.025.017a7.944,7.944,0,0,1-8.636,0Z"/><path d="M39,26H37V21a1,1,0,0,0-2,0v6a1,1,0,0,0,1,1h3a1,1,0,0,0,0-2Z"/><path d="M42,20a1,1,0,0,0-1,1v6a1,1,0,0,0,2,0V21A1,1,0,0,0,42,20Z"/><path d="M49.316,20.051a1,1,0,0,0-1.265.633L47,23.838l-1.051-3.154a1,1,0,0,0-1.9.632l2,6a1,1,0,0,0,1.9,0l2-6A1,1,0,0,0,49.316,20.051Z"/><path d="M55,22a1,1,0,0,0,0-2H52a1,1,0,0,0-1,1v6a1,1,0,0,0,1,1h3a1,1,0,0,0,0-2H53V25h1a1,1,0,0,0,0-2H53V22Z"/></g></svg>
