<svg id="icons" enable-background="new 0 0 64 64" height="512" viewBox="0 0 64 64" width="512" xmlns="http://www.w3.org/2000/svg"><path d="m62.93 36.354c-.26-3.479-1.38-6.729-3.14-9.52l-.021.01-8.8-1.28-3.92-7.93.01-.02c-1.619-.41-3.319-.62-5.06-.62-1.72 0-3.4.21-5 .6-.02 0-.04.01-.06.021l.01.02-3.92 7.93-8.8 1.28-.021-.01c-.44.689-.84 1.42-1.19 2.17-.46.96-.85 1.97-1.149 3-.42 1.4-.69 2.85-.8 4.35h.01l6.42 6.261-1.53 8.93-.01.01c2.15 2.53 4.88 4.55 7.98 5.84v-.01l8.06-4.24 8.06 4.24v.01c3.101-1.29 5.83-3.31 7.98-5.84l-.01-.01-1.53-8.93 6.42-6.261h.011z" fill="#e6e9ed"/><path d="m33 5.005h-28c0 2.21-1.79 4-4 4v10c2.21 0 4 1.79 4 4h9 6 7.28l.01.01c2.63-2.59 5.95-4.49 9.65-5.399.02-.011.04-.021.06-.021v-8.59c-2.21 0-4-1.79-4-4z" fill="#a0d468"/><circle cx="19" cy="13.995" fill="#8cc152" r="4"/><path d="m5 23.005h-4v-4c2.21 0 4 1.79 4 4z" fill="#8cc152"/><path d="m1 5.005h4c0 2.21-1.79 4-4 4z" fill="#8cc152"/><path d="m37 5.005v4c-2.21 0-4-1.79-4-4z" fill="#8cc152"/><path d="m1 26.005h23.76c-.189.27-.37.55-.55.83-.44.689-.84 1.42-1.19 2.17h-22.02z" fill="#a0d468"/><path d="m20 23.005h7.28l.01.01c-.94.91-1.78 1.91-2.53 2.99h-23.76v-3h4 9z" fill="#8cc152"/><path d="m59.79 26.835-.021.01-8.8-1.28-3.92-7.93.01-.02c5.341 1.32 9.881 4.68 12.731 9.22z" fill="#656d78"/><path d="m1 29.005h22.02c-.46.96-.85 1.97-1.149 3h-20.871z" fill="#8cc152"/><g fill="#656d78"><path d="m21 37.995c0-.55.02-1.101.07-1.641h.01l6.42 6.261-1.53 8.93-.01.01c-3.09-3.66-4.96-8.39-4.96-13.56z"/><path d="m50.06 57.385v.01c-2.479 1.03-5.21 1.601-8.06 1.601s-5.58-.57-8.06-1.601v-.01l8.06-4.24z"/><path d="m36.94 17.615.01.02-3.92 7.93-8.8 1.28-.021-.01c.18-.28.36-.561.55-.83.75-1.08 1.59-2.08 2.53-2.99 2.631-2.59 5.951-4.491 9.651-5.4z"/><path d="m56.5 42.615 6.42-6.261h.01c.051.54.07 1.091.07 1.641 0 5.17-1.87 9.899-4.96 13.56l-.01-.01z"/><path d="m50.5 35.085-3.25 9.99h-10.5l-3.25-9.99 8.5-6.17z"/></g><path d="m42 59.996c-12.131 0-22-9.869-22-22s9.869-22 22-22 22 9.869 22 22-9.869 22-22 22zm0-42c-11.028 0-20 8.972-20 20s8.972 20 20 20 20-8.972 20-20-8.972-20-20-20z"/><path d="m59.772 27.846c-.048 0-.097-.003-.146-.011l-8.803-1.283c-.325-.047-.606-.252-.752-.546l-3.918-7.93c-.245-.495-.042-1.096.453-1.34.498-.246 1.096-.041 1.34.453l3.686 7.459 8.283 1.208c.546.079.925.587.845 1.134-.072.497-.499.856-.988.856z"/><path d="m58.032 52.543c-.479 0-.901-.344-.984-.831l-1.533-8.93c-.056-.324.052-.655.287-.885l6.416-6.254c.396-.385 1.029-.379 1.414.018.386.396.378 1.029-.018 1.414l-6.04 5.887 1.444 8.412c.094.544-.271 1.062-.816 1.154-.056.01-.114.015-.17.015z"/><path d="m33.937 58.387c-.359 0-.707-.194-.886-.535-.258-.488-.069-1.093.42-1.35l8.064-4.238c.291-.154.639-.154.93 0l8.063 4.238c.489.257.678.861.42 1.35-.256.49-.859.679-1.35.42l-7.598-3.994-7.6 3.993c-.148.079-.307.116-.463.116z"/><path d="m25.968 52.543c-.056 0-.113-.005-.17-.015-.545-.093-.91-.61-.816-1.154l1.444-8.411-6.042-5.888c-.396-.385-.403-1.019-.018-1.414.386-.396 1.021-.402 1.414-.018l6.418 6.254c.235.229.343.561.287.885l-1.533 8.93c-.083.487-.506.831-.984.831z"/><path d="m24.226 27.846c-.488 0-.916-.358-.988-.855-.08-.547.299-1.055.845-1.134l8.285-1.208 3.686-7.459c.244-.494.843-.698 1.34-.453.495.244.698.845.453 1.34l-3.918 7.93c-.146.294-.427.499-.752.546l-8.805 1.283c-.05.007-.099.01-.146.01z"/><path d="m47.252 46.08h-10.506c-.434 0-.817-.279-.951-.691l-3.246-9.992c-.134-.412.013-.863.363-1.117l8.5-6.176c.352-.256.824-.256 1.176 0l8.5 6.176c.351.254.497.706.363 1.118l-3.248 9.992c-.134.411-.517.69-.951.69zm-9.779-2h9.053l2.799-8.61-7.325-5.322-7.324 5.321z"/><path d="m27.281 24.006h-26.281c-.553 0-1-.447-1-1v-18.002c0-.553.447-1 1-1h36.004c.553 0 1 .447 1 1v12.629c0 .553-.447 1-1 1s-1-.447-1-1v-11.629h-34.004v16.002h25.281c.553 0 1 .447 1 1s-.447 1-1 1z"/><path d="m1 27.006c-.553 0-1-.447-1-1v-3c0-.553.447-1 1-1s1 .447 1 1v3c0 .553-.447 1-1 1z"/><path d="m24.756 27.006h-23.756c-.553 0-1-.447-1-1s.447-1 1-1h23.756c.553 0 1 .447 1 1s-.447 1-1 1z"/><path d="m23.021 30.006h-22.021c-.553 0-1-.447-1-1s.447-1 1-1h22.021c.553 0 1 .447 1 1s-.447 1-1 1z"/><path d="m1 30.006c-.553 0-1-.447-1-1v-3c0-.553.447-1 1-1s1 .447 1 1v3c0 .553-.447 1-1 1z"/><path d="m1 33.006c-.553 0-1-.447-1-1v-6c0-.553.447-1 1-1s1 .447 1 1v6c0 .553-.447 1-1 1z"/><path d="m21.904 33.006h-20.904c-.553 0-1-.447-1-1s.447-1 1-1h20.904c.553 0 1 .447 1 1s-.447 1-1 1z"/><path d="m1 10.004c-.553 0-1-.447-1-1s.447-1 1-1c1.654 0 3-1.346 3-3 0-.553.447-1 1-1s1 .447 1 1c0 2.757-2.243 5-5 5z"/><path d="m5 24.006c-.553 0-1-.447-1-1 0-1.654-1.346-3-3-3-.553 0-1-.447-1-1s.447-1 1-1c2.757 0 5 2.243 5 5 0 .553-.447 1-1 1z"/><path d="m37.002 10.004c-2.757 0-5-2.243-5-5 0-.553.447-1 1-1s1 .447 1 1c0 1.654 1.346 3 3 3 .553 0 1 .447 1 1s-.447 1-1 1z"/><path d="m19.002 18.996c-2.757 0-5-2.243-5-5s2.243-5 5-5 5 2.243 5 5-2.243 5-5 5zm0-8c-1.654 0-3 1.346-3 3s1.346 3 3 3 3-1.346 3-3-1.346-3-3-3z"/></svg>