<svg id="Layer_1" enable-background="new 0 0 511.533 511.533" height="512" viewBox="0 0 511.533 511.533" width="512" xmlns="http://www.w3.org/2000/svg"><path d="m436.621 74.912c-48.308-48.308-112.537-74.912-180.854-74.912s-132.547 26.604-180.855 74.912-74.912 112.537-74.912 180.855 26.604 132.546 74.912 180.854 112.537 74.912 180.854 74.912 132.547-26.604 180.854-74.912c48.308-48.308 74.912-112.537 74.912-180.854s-26.603-132.547-74.911-180.855zm.125 240.114 43.062-31.137c-3.574 28.944-12.662 56.616-26.732 81.786zm-20.201-22.413-71.515-23.563-24.828-76.415 44.441-60.748 80.028.136c22.188 33.721 34.863 72.757 36.635 113.762zm-160.778 25.933-59.706-43.379 22.806-70.189h73.801l22.806 70.189zm-89.237-49.577-71.628 23.199-64.651-47.027c1.886-40.986 14.672-79.987 36.961-113.654l80.007.091 44.13 61.006zm-108.384 96.142c-13.993-25.204-23.002-52.898-26.495-81.855l42.968 31.255zm362.893-263.128-53.077-.09-16.378-50.674c23.415 10.986 44.991 26.075 63.823 44.907 1.921 1.921 3.789 3.88 5.632 5.857zm-105.247-63.955 24.62 76.171-44.464 60.778h-80.31l-44.122-60.995 24.843-76.116c19.125-5.182 39.059-7.866 59.408-7.866 20.566 0 40.712 2.737 60.025 8.028zm-155.261 12.924-16.522 50.622-53.079-.06c1.703-1.817 3.427-3.619 5.196-5.388 18.988-18.988 40.766-34.166 64.405-45.174zm-81.13 345.779 24.751-76.025 71.621-23.197 64.993 47.22v75.288l-64.778 47.064c-29.628-11.17-56.803-28.614-79.863-51.674-5.957-5.957-11.526-12.198-16.724-18.676zm133.352 80.722 43.013-31.251 43.013 31.251c-14.029 2.692-28.414 4.08-43.013 4.08s-28.984-1.389-43.013-4.08zm122.791-10.371-64.778-47.064v-75.288l64.925-47.171 71.499 23.558 24.541 76.116c-5.083 6.298-10.519 12.371-16.323 18.175-23.061 23.06-50.236 40.504-79.864 51.674z"/></svg>