<svg xmlns="http://www.w3.org/2000/svg" viewBox="0 0 64 64" width="512" height="512"><g id="Live-2" data-name="Live"><path d="M47,1H17a5.006,5.006,0,0,0-5,5V58a5.006,5.006,0,0,0,5,5H47a5.006,5.006,0,0,0,5-5V6A5.006,5.006,0,0,0,47,1ZM17,3H47a3,3,0,0,1,3,3V7H14V6A3,3,0,0,1,17,3ZM50,53H14V9H50Zm0,5a3,3,0,0,1-3,3H17a3,3,0,0,1-3-3V55H50Z"/><path d="M28,6h8a1,1,0,0,0,0-2H28a1,1,0,0,0,0,2Z"/><path d="M39,6h1a1,1,0,0,0,0-2H39a1,1,0,0,0,0,2Z"/><path d="M35,58a3,3,0,1,0-3,3A3,3,0,0,0,35,58Zm-3,1a1,1,0,1,1,1-1A1,1,0,0,1,32,59Z"/><path d="M30,44H28V39a1,1,0,0,0-2,0v6a1,1,0,0,0,1,1h3a1,1,0,0,0,0-2Z"/><path d="M33,38a1,1,0,0,0-1,1v6a1,1,0,0,0,2,0V39A1,1,0,0,0,33,38Z"/><path d="M40.316,38.051a1,1,0,0,0-1.265.633L38,41.838l-1.051-3.154a1,1,0,1,0-1.9.632l2,6a1,1,0,0,0,1.9,0l2-6A1,1,0,0,0,40.316,38.051Z"/><path d="M43,38a1,1,0,0,0-1,1v6a1,1,0,0,0,1,1h3a1,1,0,0,0,0-2H44V43h1a1,1,0,0,0,0-2H44V40h2a1,1,0,0,0,0-2Z"/><path d="M26,34a9.949,9.949,0,0,0,6.324-2.262l2.969,2.969a1,1,0,0,0,1.414-1.414l-2.969-2.969a10.011,10.011,0,0,0,.886-1.286l2.169,2.169a1,1,0,0,0,1.414-1.414l-2.5-2.5a.951.951,0,0,0-.222-.147,9.974,9.974,0,0,0,.271-.976l9.037,9.037a1,1,0,0,0,1.414-1.414L35.978,23.564A9.994,9.994,0,1,0,26,34ZM18,24a7.966,7.966,0,0,1,.206-1.779l2.909,1.455.8,4-1.622,1.622a.949.949,0,0,0-.116.175A7.961,7.961,0,0,1,18,24Zm8-2.826,2.9,2.238L28.18,27H23.82L23.1,23.412ZM34,24a7.961,7.961,0,0,1-2.177,5.468.949.949,0,0,0-.116-.175l-1.622-1.622.8-4,2.909-1.455A7.966,7.966,0,0,1,34,24ZM21.682,30.724c.007-.007.018-.009.025-.017L23.414,29h5.172l1.707,1.707c.007.008.018.01.025.017a7.944,7.944,0,0,1-8.636,0ZM33.1,20.331l-2.987,1.494L27,19.419v-3.35A8.011,8.011,0,0,1,33.1,20.331ZM25,16.069v3.35l-3.114,2.406L18.9,20.331A8.011,8.011,0,0,1,25,16.069Z"/><path d="M41.707,33.293l-1-1a1,1,0,0,0-1.414,1.414l1,1a1,1,0,0,0,1.414-1.414Z"/></g></svg>
