<svg height="512" viewBox="0 0 512 512" width="512" xmlns="http://www.w3.org/2000/svg"><g id="Solid"><path d="m184 288h-108l-36 48h108z"/><path d="m241.6 348.8-33.6-44.8v176h224v-128h-184a8 8 0 0 1 -6.4-3.2zm158.4 99.2h16v16h-16zm-32 0h16v16h-16z"/><path d="m152 352h-72v128h112v-176l-33.6 44.8a8 8 0 0 1 -6.4 3.2z"/><path d="m216 288 36 48h220l-36-48z"/><path d="m160 196.32v-12.32h-24a8 8 0 0 1 -8-8v-152h-32v152a8 8 0 0 1 -8 8h-24v12.32l48 41.143z"/><path d="m304 196.32v-12.32h-24a8 8 0 0 1 -8-8v-152h-32v152a8 8 0 0 1 -8 8h-24v12.32l48 41.143z"/><path d="m448 196.32v-12.32h-24a8 8 0 0 1 -8-8v-152h-32v152a8 8 0 0 1 -8 8h-24v12.32l48 41.143z"/></g></svg>