<svg id="Capa_1" enable-background="new 0 0 512 512" height="512" viewBox="0 0 512 512" width="512" xmlns="http://www.w3.org/2000/svg"><g><path d="m326.605 10.605-10.605-10.605-10.605 10.605c-10.693 10.693-28.096 10.693-38.789 0l-10.606-10.605-10.605 10.605c-10.693 10.693-28.096 10.693-38.789 0l-10.606-10.605-10.605 10.605c-31.245 31.245-41.323 56.737-5.054 97.885 11.177 12.7 20.845 23.672 25.986 36.855l4.746 12.144 12.686-2.988c9.8-2.329 21.021-3.494 32.241-3.494s22.441 1.165 32.241 3.494l12.686 2.988 4.746-12.144c5.171-13.242 14.883-24.243 26.118-37.002 36.138-41 26.06-66.492-5.186-97.738z" fill="#f03800"/><path d="m300.927 157.489 4.746-12.144c5.171-13.242 14.883-24.243 26.118-37.002 36.138-41.001 26.06-66.493-5.186-97.738l-10.605-10.605-10.605 10.605c-10.693 10.693-28.096 10.693-38.789 0l-10.606-10.605v151.007c11.221 0 22.441 1.165 32.241 3.494z" fill="#cd0000"/><path d="m450.912 370.785c-7.661-17.124-14.912-33.296-14.912-69.785 0-96.661-78.382-179.923-180-179.956-.02 0-.038-.004-.059-.004-98.574 0-179.941 79.43-179.941 179.96 0 36.387-7.266 52.617-14.941 69.814-7.413 16.539-15.059 33.663-15.059 65.186 0 44.194 55.342 76 105 76h105 105c49.658 0 105-31.806 105-76 0-31.567-7.661-48.677-15.088-65.215z" fill="#ff641a"/><path d="m466 436c0-31.567-7.661-48.677-15.088-65.215-7.661-17.124-14.912-33.296-14.912-69.785 0-96.661-78.382-179.923-180-179.956v390.956h105c49.658 0 105-31.806 105-76z" fill="#f03800"/><g><g><path d="m256 301c-8.276 0-15-6.724-15-15s6.724-15 15-15 15 6.724 15 15h30c0-19.565-12.563-36.048-30-42.246v-32.754h-15-15v32.754c-17.437 6.198-30 22.681-30 42.246 0 24.853 20.147 45 45 45 8.276 0 15 6.724 15 15s-6.724 15-15 15-15-6.724-15-15h-30c0 19.565 12.563 36.048 30 42.246v32.754h15 15v-32.754c17.437-6.198 30-22.681 30-42.246 0-24.853-20.147-45-45-45z" fill="#fed843"/></g><g fill="#fabe2c"><path d="m271 388.246c17.437-6.198 30-22.681 30-42.246 0-24.853-20.147-45-45-45v30c8.276 0 15 6.724 15 15s-6.724 15-15 15v60h15z"/><path d="m271 286h30c0-19.565-12.563-36.048-30-42.246v-32.754h-15v60c8.276 0 15 6.724 15 15z"/></g></g></g></svg>