  <svg
    id="searchicon"
    viewBox="0 0 28 28"
    xmlns="http://www.w3.org/2000/svg"
  >
    <path d="M24.9042 25.9891C24.761 25.9894 24.619 25.9615 24.4866 25.9068C24.3542 25.8521 24.2339 25.7718 24.1326 25.6705L17.9447 19.4814C16.2083 20.8797 14.0436 21.6378 11.8142 21.6284C9.87313 21.6284 7.97566 21.0528 6.36172 19.9744C4.74779 18.896 3.48988 17.3632 2.74707 15.5699C2.00425 13.7766 1.8099 11.8033 2.18858 9.89954C2.56726 7.99577 3.50197 6.24705 4.87451 4.87451C6.24705 3.50198 7.99578 2.56726 9.89954 2.18858C11.8033 1.8099 13.7766 2.00425 15.5699 2.74707C17.3632 3.48988 18.896 4.74779 19.9744 6.36172C21.0528 7.97566 21.6284 9.87313 21.6284 11.8142C21.6379 14.0434 20.8802 16.208 19.4827 17.9447L25.6759 24.1232C25.83 24.2755 25.9353 24.4702 25.9783 24.6826C26.0213 24.895 26.0001 25.1153 25.9172 25.3155C25.8344 25.5158 25.6938 25.6868 25.5134 25.8067C25.333 25.9267 25.1209 25.9902 24.9042 25.9891ZM11.8195 4.18034C10.31 4.18034 8.8344 4.62795 7.57926 5.46656C6.32413 6.30518 5.34585 7.49713 4.76813 8.89172C4.1904 10.2863 4.03917 11.8209 4.33357 13.3014C4.62796 14.7819 5.35476 16.1419 6.42205 17.2094C7.48934 18.2769 8.8492 19.0039 10.3297 19.2986C11.8102 19.5932 13.3448 19.4423 14.7394 18.8648C16.1341 18.2873 17.3263 17.3092 18.1651 16.0542C19.0039 14.7992 19.4518 13.3237 19.452 11.8142C19.4499 9.79045 18.6452 7.85018 17.2143 6.41905C15.7834 4.98793 13.8433 4.18281 11.8195 4.18034Z" />
  </svg>