<!-- Generator: Adobe Illustrator 19.0.0, SVG Export Plug-In . SVG Version: 6.00 Build 0)  -->
<svg version="1.1" id="Capa_1" xmlns="http://www.w3.org/2000/svg" xmlns:xlink="http://www.w3.org/1999/xlink" x="0px" y="0px"
	 viewBox="0 0 512 512" style="enable-background:new 0 0 512 512;" xml:space="preserve">
<g>
	<g>
		<path d="M438.154,83.692H73.846C33.127,83.692,0,116.82,0,157.538v196.923c0,40.719,33.127,73.846,73.846,73.846h364.308
			c40.719,0,73.846-33.127,73.846-73.846V157.538C512,116.82,478.873,83.692,438.154,83.692z M482.462,354.462
			c0,24.431-19.876,44.308-44.308,44.308H73.846c-24.431,0-44.308-19.876-44.308-44.308V157.538
			c0-24.431,19.876-44.308,44.308-44.308h364.308c24.431,0,44.308,19.876,44.308,44.308V354.462z"/>
	</g>
</g>
<g>
	<g>
		<path d="M373.169,303.262l-43.323-32.492h4.923c24.431,0,44.308-19.876,44.308-44.308s-19.876-44.308-44.308-44.308h-68.923
			c-5.595,0-10.709,3.161-13.21,8.164l-45.867,91.734l-45.867-91.734c-3.647-7.296-12.518-10.256-19.814-6.605
			c-7.296,3.647-10.253,12.519-6.605,19.814l59.077,118.154c2.501,5.004,7.615,8.164,13.21,8.164s10.709-3.161,13.211-8.164
			l54.995-109.989h59.795c8.144,0,14.769,6.625,14.769,14.769s-6.625,14.769-14.769,14.769h-49.231c-6.357,0-12,4.068-14.011,10.099
			c-2.01,6.031,0.064,12.671,5.15,16.485l78.769,59.077c2.656,1.992,5.766,2.955,8.85,2.955c4.491,0,8.927-2.04,11.827-5.909
			C381.018,317.413,379.694,308.156,373.169,303.262z"/>
	</g>
</g>
<g>
</g>
<g>
</g>
<g>
</g>
<g>
</g>
<g>
</g>
<g>
</g>
<g>
</g>
<g>
</g>
<g>
</g>
<g>
</g>
<g>
</g>
<g>
</g>
<g>
</g>
<g>
</g>
<g>
</g>
</svg>
